<svg width="250" height="184" viewBox="0 0 250 184" fill="none" xmlns="http://www.w3.org/2000/svg">
<g clip-path="url(#clip0_50_1873)">
<g opacity="0.3">
<path d="M172.518 102.189H146.04C145.102 102.189 144.342 102.943 144.342 103.874V109.466C144.342 110.397 145.102 111.151 146.04 111.151H172.518C173.456 111.151 174.216 110.397 174.216 109.466V103.874C174.216 102.943 173.456 102.189 172.518 102.189Z" fill="#F2F2F2"/>
<path d="M203.782 111.151H177.303C176.366 111.151 175.605 111.905 175.605 112.836V118.428C175.605 119.359 176.366 120.113 177.303 120.113H203.782C204.72 120.113 205.48 119.359 205.48 118.428V112.836C205.48 111.905 204.72 111.151 203.782 111.151Z" fill="#F2F2F2"/>
<path d="M235.048 120.115H208.569C207.632 120.115 206.872 120.87 206.872 121.8V127.393C206.872 128.323 207.632 129.078 208.569 129.078H235.048C235.986 129.078 236.746 128.323 236.746 127.393V121.8C236.746 120.87 235.986 120.115 235.048 120.115Z" fill="#F2F2F2"/>
<path d="M172.518 88.7435H146.04C145.102 88.7435 144.342 89.4979 144.342 90.4285V96.0207C144.342 96.9513 145.102 97.7056 146.04 97.7056H172.518C173.456 97.7056 174.216 96.9513 174.216 96.0207V90.4285C174.216 89.4979 173.456 88.7435 172.518 88.7435Z" fill="#F2F2F2"/>
<path d="M203.782 97.708H177.303C176.366 97.708 175.605 98.4624 175.605 99.3929V104.985C175.605 105.916 176.366 106.67 177.303 106.67H203.782C204.72 106.67 205.48 105.916 205.48 104.985V99.3929C205.48 98.4624 204.72 97.708 203.782 97.708Z" fill="#F2F2F2"/>
<path d="M235.048 106.67H208.569C207.632 106.67 206.872 107.424 206.872 108.355V113.947C206.872 114.878 207.632 115.632 208.569 115.632H235.048C235.986 115.632 236.746 114.878 236.746 113.947V108.355C236.746 107.424 235.986 106.67 235.048 106.67Z" fill="#F2F2F2"/>
<path d="M172.518 70.8193H146.04C145.102 70.8193 144.342 71.5737 144.342 72.5043V78.0965C144.342 79.0271 145.102 79.7814 146.04 79.7814H172.518C173.456 79.7814 174.216 79.0271 174.216 78.0965V72.5043C174.216 71.5737 173.456 70.8193 172.518 70.8193Z" fill="#F2F2F2"/>
<path d="M203.782 79.7815H177.303C176.366 79.7815 175.605 80.5359 175.605 81.4664V87.0587C175.605 87.9892 176.366 88.7436 177.303 88.7436H203.782C204.72 88.7436 205.48 87.9892 205.48 87.0587V81.4664C205.48 80.5359 204.72 79.7815 203.782 79.7815Z" fill="#F2F2F2"/>
<path d="M235.048 88.7435H208.569C207.632 88.7435 206.872 89.4979 206.872 90.4285V96.0207C206.872 96.9513 207.632 97.7056 208.569 97.7056H235.048C235.986 97.7056 236.746 96.9513 236.746 96.0207V90.4285C236.746 89.4979 235.986 88.7435 235.048 88.7435Z" fill="#F2F2F2"/>
<path d="M172.518 57.3739H146.04C145.102 57.3739 144.342 58.1283 144.342 59.0588V64.6511C144.342 65.5816 145.102 66.336 146.04 66.336H172.518C173.456 66.336 174.216 65.5816 174.216 64.6511V59.0588C174.216 58.1283 173.456 57.3739 172.518 57.3739Z" fill="#F2F2F2"/>
<path d="M203.782 66.3361H177.303C176.366 66.3361 175.605 67.0904 175.605 68.021V73.6132C175.605 74.5438 176.366 75.2982 177.303 75.2982H203.782C204.72 75.2982 205.48 74.5438 205.48 73.6132V68.021C205.48 67.0904 204.72 66.3361 203.782 66.3361Z" fill="#F2F2F2"/>
<path d="M235.048 75.3004H208.569C207.632 75.3004 206.872 76.0548 206.872 76.9854V82.5776C206.872 83.5082 207.632 84.2625 208.569 84.2625H235.048C235.986 84.2625 236.746 83.5082 236.746 82.5776V76.9854C236.746 76.0548 235.986 75.3004 235.048 75.3004Z" fill="#F2F2F2"/>
<path opacity="0.1" d="M172.518 102.189H146.04C145.102 102.189 144.342 102.943 144.342 103.874V109.466C144.342 110.397 145.102 111.151 146.04 111.151H172.518C173.456 111.151 174.216 110.397 174.216 109.466V103.874C174.216 102.943 173.456 102.189 172.518 102.189Z" fill="#202429"/>
<path opacity="0.1" d="M203.782 111.151H177.303C176.366 111.151 175.605 111.905 175.605 112.836V118.428C175.605 119.359 176.366 120.113 177.303 120.113H203.782C204.72 120.113 205.48 119.359 205.48 118.428V112.836C205.48 111.905 204.72 111.151 203.782 111.151Z" fill="#202429"/>
<path opacity="0.1" d="M235.048 120.115H208.569C207.632 120.115 206.872 120.87 206.872 121.8V127.393C206.872 128.323 207.632 129.078 208.569 129.078H235.048C235.986 129.078 236.746 128.323 236.746 127.393V121.8C236.746 120.87 235.986 120.115 235.048 120.115Z" fill="#202429"/>
<path opacity="0.1" d="M172.518 88.7435H146.04C145.102 88.7435 144.342 89.4979 144.342 90.4285V96.0207C144.342 96.9513 145.102 97.7056 146.04 97.7056H172.518C173.456 97.7056 174.216 96.9513 174.216 96.0207V90.4285C174.216 89.4979 173.456 88.7435 172.518 88.7435Z" fill="#202429"/>
<path opacity="0.1" d="M203.782 97.708H177.303C176.366 97.708 175.605 98.4624 175.605 99.3929V104.985C175.605 105.916 176.366 106.67 177.303 106.67H203.782C204.72 106.67 205.48 105.916 205.48 104.985V99.3929C205.48 98.4624 204.72 97.708 203.782 97.708Z" fill="#202429"/>
<path opacity="0.1" d="M235.048 106.67H208.569C207.632 106.67 206.872 107.424 206.872 108.355V113.947C206.872 114.878 207.632 115.632 208.569 115.632H235.048C235.986 115.632 236.746 114.878 236.746 113.947V108.355C236.746 107.424 235.986 106.67 235.048 106.67Z" fill="#202429"/>
<path opacity="0.1" d="M172.518 70.8193H146.04C145.102 70.8193 144.342 71.5737 144.342 72.5043V78.0965C144.342 79.0271 145.102 79.7814 146.04 79.7814H172.518C173.456 79.7814 174.216 79.0271 174.216 78.0965V72.5043C174.216 71.5737 173.456 70.8193 172.518 70.8193Z" fill="#202429"/>
<path opacity="0.1" d="M203.782 79.7815H177.303C176.366 79.7815 175.605 80.5359 175.605 81.4664V87.0587C175.605 87.9892 176.366 88.7436 177.303 88.7436H203.782C204.72 88.7436 205.48 87.9892 205.48 87.0587V81.4664C205.48 80.5359 204.72 79.7815 203.782 79.7815Z" fill="#202429"/>
<path opacity="0.1" d="M235.048 88.7435H208.569C207.632 88.7435 206.872 89.4979 206.872 90.4285V96.0207C206.872 96.9513 207.632 97.7056 208.569 97.7056H235.048C235.986 97.7056 236.746 96.9513 236.746 96.0207V90.4285C236.746 89.4979 235.986 88.7435 235.048 88.7435Z" fill="#202429"/>
<path opacity="0.1" d="M172.518 57.3739H146.04C145.102 57.3739 144.342 58.1283 144.342 59.0588V64.6511C144.342 65.5816 145.102 66.336 146.04 66.336H172.518C173.456 66.336 174.216 65.5816 174.216 64.6511V59.0588C174.216 58.1283 173.456 57.3739 172.518 57.3739Z" fill="#202429"/>
<path opacity="0.1" d="M203.782 66.3361H177.303C176.366 66.3361 175.605 67.0904 175.605 68.021V73.6132C175.605 74.5438 176.366 75.2982 177.303 75.2982H203.782C204.72 75.2982 205.48 74.5438 205.48 73.6132V68.021C205.48 67.0904 204.72 66.3361 203.782 66.3361Z" fill="#202429"/>
<path opacity="0.1" d="M235.048 75.3004H208.569C207.632 75.3004 206.872 76.0548 206.872 76.9854V82.5776C206.872 83.5082 207.632 84.2625 208.569 84.2625H235.048C235.986 84.2625 236.746 83.5082 236.746 82.5776V76.9854C236.746 76.0548 235.986 75.3004 235.048 75.3004Z" fill="#202429"/>
</g>
<g opacity="0.3">
<path d="M55.5163 44.8151H29.0377C28.1 44.8151 27.3398 45.5694 27.3398 46.5V52.0922C27.3398 53.0228 28.1 53.7772 29.0377 53.7772H55.5163C56.454 53.7772 57.2142 53.0228 57.2142 52.0922V46.5C57.2142 45.5694 56.454 44.8151 55.5163 44.8151Z" fill="#F2F2F2"/>
<path d="M86.7799 53.7772H60.3014C59.3637 53.7772 58.6035 54.5316 58.6035 55.4622V61.0544C58.6035 61.985 59.3637 62.7393 60.3014 62.7393H86.7799C87.7177 62.7393 88.4778 61.985 88.4778 61.0544V55.4622C88.4778 54.5316 87.7177 53.7772 86.7799 53.7772Z" fill="#F2F2F2"/>
<path d="M118.046 62.7416H91.5675C90.6298 62.7416 89.8696 63.4959 89.8696 64.4265V70.0188C89.8696 70.9493 90.6298 71.7037 91.5675 71.7037H118.046C118.984 71.7037 119.744 70.9493 119.744 70.0188V64.4265C119.744 63.4959 118.984 62.7416 118.046 62.7416Z" fill="#F2F2F2"/>
<path d="M55.5163 31.3696H29.0377C28.1 31.3696 27.3398 32.124 27.3398 33.0546V38.6468C27.3398 39.5774 28.1 40.3317 29.0377 40.3317H55.5163C56.454 40.3317 57.2142 39.5774 57.2142 38.6468V33.0546C57.2142 32.124 56.454 31.3696 55.5163 31.3696Z" fill="#F2F2F2"/>
<path d="M86.7799 40.334H60.3014C59.3637 40.334 58.6035 41.0884 58.6035 42.0189V47.6112C58.6035 48.5417 59.3637 49.2961 60.3014 49.2961H86.7799C87.7177 49.2961 88.4778 48.5417 88.4778 47.6112V42.0189C88.4778 41.0884 87.7177 40.334 86.7799 40.334Z" fill="#F2F2F2"/>
<path d="M118.046 49.2961H91.5675C90.6298 49.2961 89.8696 50.0505 89.8696 50.9811V56.5733C89.8696 57.5039 90.6298 58.2583 91.5675 58.2583H118.046C118.984 58.2583 119.744 57.5039 119.744 56.5733V50.9811C119.744 50.0505 118.984 49.2961 118.046 49.2961Z" fill="#F2F2F2"/>
<path d="M55.5163 13.4454H29.0377C28.1 13.4454 27.3398 14.1998 27.3398 15.1304V20.7226C27.3398 21.6532 28.1 22.4075 29.0377 22.4075H55.5163C56.454 22.4075 57.2142 21.6532 57.2142 20.7226V15.1304C57.2142 14.1998 56.454 13.4454 55.5163 13.4454Z" fill="#F2F2F2"/>
<path d="M86.7799 22.4076H60.3014C59.3637 22.4076 58.6035 23.162 58.6035 24.0925V29.6848C58.6035 30.6153 59.3637 31.3697 60.3014 31.3697H86.7799C87.7177 31.3697 88.4778 30.6153 88.4778 29.6848V24.0925C88.4778 23.162 87.7177 22.4076 86.7799 22.4076Z" fill="#F2F2F2"/>
<path d="M118.046 31.3696H91.5675C90.6298 31.3696 89.8696 32.124 89.8696 33.0546V38.6468C89.8696 39.5774 90.6298 40.3317 91.5675 40.3317H118.046C118.984 40.3317 119.744 39.5774 119.744 38.6468V33.0546C119.744 32.124 118.984 31.3696 118.046 31.3696Z" fill="#F2F2F2"/>
<path d="M55.5163 0H29.0377C28.1 0 27.3398 0.75437 27.3398 1.68493V7.27718C27.3398 8.20774 28.1 8.96211 29.0377 8.96211H55.5163C56.454 8.96211 57.2142 8.20774 57.2142 7.27718V1.68493C57.2142 0.75437 56.454 0 55.5163 0Z" fill="#F2F2F2"/>
<path d="M86.7799 8.96216H60.3014C59.3637 8.96216 58.6035 9.71653 58.6035 10.6471V16.2393C58.6035 17.1699 59.3637 17.9243 60.3014 17.9243H86.7799C87.7177 17.9243 88.4778 17.1699 88.4778 16.2393V10.6471C88.4778 9.71653 87.7177 8.96216 86.7799 8.96216Z" fill="#F2F2F2"/>
<path d="M118.046 17.9265H91.5675C90.6298 17.9265 89.8696 18.6809 89.8696 19.6114V25.2037C89.8696 26.1343 90.6298 26.8886 91.5675 26.8886H118.046C118.984 26.8886 119.744 26.1343 119.744 25.2037V19.6114C119.744 18.6809 118.984 17.9265 118.046 17.9265Z" fill="#F2F2F2"/>
<path opacity="0.1" d="M55.5163 44.8151H29.0377C28.1 44.8151 27.3398 45.5694 27.3398 46.5V52.0922C27.3398 53.0228 28.1 53.7772 29.0377 53.7772H55.5163C56.454 53.7772 57.2142 53.0228 57.2142 52.0922V46.5C57.2142 45.5694 56.454 44.8151 55.5163 44.8151Z" fill="#202429"/>
<path opacity="0.1" d="M86.7799 53.7772H60.3014C59.3637 53.7772 58.6035 54.5316 58.6035 55.4622V61.0544C58.6035 61.985 59.3637 62.7393 60.3014 62.7393H86.7799C87.7177 62.7393 88.4778 61.985 88.4778 61.0544V55.4622C88.4778 54.5316 87.7177 53.7772 86.7799 53.7772Z" fill="#202429"/>
<path opacity="0.1" d="M118.046 62.7416H91.5675C90.6298 62.7416 89.8696 63.4959 89.8696 64.4265V70.0188C89.8696 70.9493 90.6298 71.7037 91.5675 71.7037H118.046C118.984 71.7037 119.744 70.9493 119.744 70.0188V64.4265C119.744 63.4959 118.984 62.7416 118.046 62.7416Z" fill="#202429"/>
<path opacity="0.1" d="M55.5163 31.3696H29.0377C28.1 31.3696 27.3398 32.124 27.3398 33.0546V38.6468C27.3398 39.5774 28.1 40.3317 29.0377 40.3317H55.5163C56.454 40.3317 57.2142 39.5774 57.2142 38.6468V33.0546C57.2142 32.124 56.454 31.3696 55.5163 31.3696Z" fill="#202429"/>
<path opacity="0.1" d="M86.7799 40.334H60.3014C59.3637 40.334 58.6035 41.0884 58.6035 42.0189V47.6112C58.6035 48.5417 59.3637 49.2961 60.3014 49.2961H86.7799C87.7177 49.2961 88.4778 48.5417 88.4778 47.6112V42.0189C88.4778 41.0884 87.7177 40.334 86.7799 40.334Z" fill="#202429"/>
<path opacity="0.1" d="M118.046 49.2961H91.5675C90.6298 49.2961 89.8696 50.0505 89.8696 50.9811V56.5733C89.8696 57.5039 90.6298 58.2583 91.5675 58.2583H118.046C118.984 58.2583 119.744 57.5039 119.744 56.5733V50.9811C119.744 50.0505 118.984 49.2961 118.046 49.2961Z" fill="#202429"/>
<path opacity="0.1" d="M55.5163 13.4454H29.0377C28.1 13.4454 27.3398 14.1998 27.3398 15.1304V20.7226C27.3398 21.6532 28.1 22.4075 29.0377 22.4075H55.5163C56.454 22.4075 57.2142 21.6532 57.2142 20.7226V15.1304C57.2142 14.1998 56.454 13.4454 55.5163 13.4454Z" fill="#202429"/>
<path opacity="0.1" d="M86.7799 22.4076H60.3014C59.3637 22.4076 58.6035 23.162 58.6035 24.0925V29.6848C58.6035 30.6153 59.3637 31.3697 60.3014 31.3697H86.7799C87.7177 31.3697 88.4778 30.6153 88.4778 29.6848V24.0925C88.4778 23.162 87.7177 22.4076 86.7799 22.4076Z" fill="#202429"/>
<path opacity="0.1" d="M118.046 31.3696H91.5675C90.6298 31.3696 89.8696 32.124 89.8696 33.0546V38.6468C89.8696 39.5774 90.6298 40.3317 91.5675 40.3317H118.046C118.984 40.3317 119.744 39.5774 119.744 38.6468V33.0546C119.744 32.124 118.984 31.3696 118.046 31.3696Z" fill="#202429"/>
<path opacity="0.1" d="M55.5163 0H29.0377C28.1 0 27.3398 0.75437 27.3398 1.68493V7.27718C27.3398 8.20774 28.1 8.96211 29.0377 8.96211H55.5163C56.454 8.96211 57.2142 8.20774 57.2142 7.27718V1.68493C57.2142 0.75437 56.454 0 55.5163 0Z" fill="#202429"/>
<path opacity="0.1" d="M86.7799 8.96216H60.3014C59.3637 8.96216 58.6035 9.71653 58.6035 10.6471V16.2393C58.6035 17.1699 59.3637 17.9243 60.3014 17.9243H86.7799C87.7177 17.9243 88.4778 17.1699 88.4778 16.2393V10.6471C88.4778 9.71653 87.7177 8.96216 86.7799 8.96216Z" fill="#202429"/>
<path opacity="0.1" d="M118.046 17.9265H91.5675C90.6298 17.9265 89.8696 18.6809 89.8696 19.6114V25.2037C89.8696 26.1343 90.6298 26.8886 91.5675 26.8886H118.046C118.984 26.8886 119.744 26.1343 119.744 25.2037V19.6114C119.744 18.6809 118.984 17.9265 118.046 17.9265Z" fill="#202429"/>
</g>
<g opacity="0.1">
<path d="M67.5527 125.225C67.5562 126.51 67.4229 127.793 67.1551 129.05C67.1048 129.277 67.05 129.52 66.9952 129.747C65.5852 135.364 61.6021 139.473 56.8512 139.725C56.6935 139.725 56.5335 139.738 56.369 139.738C51.3416 139.738 47.0957 135.429 45.6949 129.515C45.6537 129.356 45.6195 129.2 45.5852 129.041C45.3174 127.783 45.1841 126.501 45.1876 125.216C45.1876 117.19 50.1921 110.702 56.369 110.702C62.5459 110.702 67.5527 117.199 67.5527 125.225Z" fill="#3F3D56"/>
<path opacity="0.1" d="M67.5524 125.225C67.5558 126.51 67.4226 127.793 67.1548 129.05C67.1045 129.277 67.0496 129.52 66.9948 129.747C66.8257 129.747 66.6612 129.747 66.4943 129.726C65.264 129.659 64.0412 129.493 62.838 129.23C61.771 129.556 60.681 129.803 59.5771 129.969C58.7304 130.092 57.8774 130.167 57.0222 130.196C56.7343 130.196 56.4464 130.211 56.1584 130.211C55.1343 130.211 54.1114 130.143 53.0963 130.01C51.4578 129.79 49.8486 129.393 48.2974 128.826C47.4472 129.104 46.5811 129.331 45.7037 129.506C45.6625 129.347 45.6283 129.191 45.594 129.032C45.3262 127.774 45.1929 126.492 45.1964 125.207C45.1964 117.181 50.2009 110.693 56.3778 110.693C62.5547 110.693 67.5524 117.199 67.5524 125.225Z" fill="black"/>
<path d="M91.4076 98.1637C91.4124 94.633 90.5786 91.1509 88.9738 87.9997L75.8225 92.0567L87.3651 85.3215C85.4297 82.5452 82.8905 80.2359 79.9351 78.5642C76.9796 76.8925 73.6835 75.9011 70.2901 75.6632C69.7509 74.8499 69.1593 74.0719 68.5191 73.3342L49.6137 79.1691L65.105 70.1299C62.1422 67.8772 58.666 66.3832 54.9834 65.7797C51.3009 65.1763 47.5252 65.4821 43.9899 66.6701C40.4547 67.858 37.2686 69.8916 34.713 72.5912C32.1575 75.2908 30.3112 78.5734 29.3372 82.149L45.5186 100.633L27.9409 88.0428C23.4959 91.1716 20.3314 95.7809 19.0239 101.031C17.7164 106.281 18.3529 111.823 20.8175 116.646C23.2821 121.469 27.4108 125.254 32.4513 127.309C37.4919 129.365 43.1089 129.556 48.2791 127.846C52.96 129.552 58.0745 129.691 62.8427 128.243C66.1648 128.972 69.6095 128.952 72.9227 128.184C76.236 127.416 79.3334 125.92 81.9868 123.807C84.6402 121.693 86.7819 119.016 88.2541 115.972C89.7264 112.928 90.4916 109.595 90.4935 106.219C90.4935 105.718 90.4752 105.221 90.4432 104.727C91.0887 102.598 91.4137 100.387 91.4076 98.1637Z" fill="#202429"/>
<path opacity="0.1" d="M91.0169 102.348C84.0715 101.041 76.9492 100.951 69.9726 102.082C62.0772 103.38 54.0059 106.23 46.282 104.146C41.7505 102.921 37.8268 100.091 33.4049 98.522C29.1332 97.0387 24.5301 96.7631 20.1097 97.7261C18.4236 101.725 17.9337 106.121 18.6984 110.389C19.4631 114.656 21.4502 118.615 24.422 121.792C27.3938 124.969 31.2247 127.229 35.4566 128.303C39.6886 129.376 44.1425 129.218 48.2861 127.846C52.9649 129.55 58.0768 129.69 62.8428 128.243C66.165 128.972 69.6096 128.952 72.9228 128.184C76.2361 127.416 79.3335 125.92 81.9869 123.807C84.6403 121.693 86.782 119.016 88.2543 115.972C89.7265 112.928 90.4918 109.595 90.4936 106.219C90.4936 105.718 90.4753 105.221 90.4433 104.727C90.6782 103.945 90.8697 103.15 91.0169 102.348Z" fill="black"/>
</g>
<path opacity="0.1" d="M125 181.215C194.036 181.215 250 171.113 250 158.651C250 146.189 194.036 136.087 125 136.087C55.9644 136.087 0 146.189 0 158.651C0 171.113 55.9644 181.215 125 181.215Z" fill="#202429"/>
<path d="M166.06 161.252C166.229 160.57 166.562 159.939 167.032 159.414C167.502 158.89 168.094 158.487 168.757 158.241C169.42 157.995 170.133 157.913 170.835 158.004C171.537 158.094 172.205 158.353 172.783 158.758L172.962 158.887C176.785 161.731 174.516 166.947 172.962 167.065C171.408 167.182 168.419 167.309 168.419 167.309C168.419 167.309 164.897 165.867 166.06 161.252Z" fill="#192534"/>
<path d="M200.553 157.708V158.656C200.553 158.656 185.014 159.722 183.354 159.722H180.249C180.249 159.722 180.203 159.769 180.128 159.855C180 159.998 179.783 160.25 179.543 160.563C179.054 161.193 178.471 162.073 178.336 162.803C178.108 164.107 177.262 164.581 177.262 164.581L174.157 163.754L171.161 160.198L170.724 159.781L169.481 158.604L168.418 157.594L168.471 157.028V156.941C168.725 155.723 169.05 154.521 169.445 153.34C169.445 153.308 169.465 153.274 169.477 153.243C170.338 150.676 171.775 147.557 173.846 146.63C174.003 146.56 174.168 146.492 174.344 146.43L174.554 146.358C178.526 145.038 186.03 145.562 186.03 145.562C186.03 145.562 191.762 147.222 192.242 147.934C192.721 148.646 198.153 154.51 198.153 154.51C198.63 154.867 199.07 155.271 199.465 155.714C199.975 156.275 200.448 156.98 200.553 157.708Z" fill="#202429"/>
<path opacity="0.1" d="M167.946 165.531C168.87 165.531 169.618 164.364 169.618 162.924C169.618 161.483 168.87 160.316 167.946 160.316C167.022 160.316 166.273 161.483 166.273 162.924C166.273 164.364 167.022 165.531 167.946 165.531Z" fill="white"/>
<path opacity="0.1" d="M174.875 147.514C174.875 147.514 173.503 149.601 172.055 152.277C172.054 152.283 172.054 152.29 172.055 152.297C171.668 153.009 171.275 153.76 170.901 154.528L170.885 154.565C170.885 154.565 170.092 153.941 169.468 153.333C169.468 153.302 169.488 153.268 169.5 153.236C170.361 150.669 171.799 147.551 173.869 146.623C174.027 146.553 174.191 146.485 174.367 146.423L174.875 147.514Z" fill="black"/>
<path opacity="0.1" d="M170.813 154.508C170.813 154.508 179.294 157.003 180.964 155.93C180.964 155.93 181.563 148.344 177.621 147.87C177.621 147.87 175.352 147.276 174.879 147.644C174.406 148.011 170.813 154.508 170.813 154.508Z" fill="white"/>
<path opacity="0.1" d="M181.801 148.936C181.801 148.936 183.474 155.218 184.669 155.338C185.864 155.458 197.923 155.218 197.447 154.388C196.972 153.558 191.714 148.226 191.714 148.226L181.801 148.936Z" fill="white"/>
<path d="M179.749 160.302C179.749 160.302 181.92 157.47 185.743 160.316C189.566 163.162 187.294 168.375 185.743 168.493C184.191 168.611 181.216 168.731 181.216 168.731C181.216 168.731 176.501 166.808 179.749 160.302Z" fill="#192534"/>
<path d="M202.297 161.023C202.138 160.576 201.887 160.166 201.56 159.819C201.233 159.473 200.837 159.197 200.398 159.01C199.958 158.823 199.484 158.728 199.006 158.732C198.528 158.736 198.055 158.838 197.619 159.032C197.192 159.232 196.788 159.476 196.412 159.76C193.01 162.291 195.041 166.933 196.412 167.04C196.908 167.076 197.569 167.114 198.211 167.148C198.868 167.183 199.525 167.066 200.129 166.806C200.733 166.546 201.268 166.151 201.692 165.651C202.116 165.151 202.417 164.56 202.572 163.926C202.727 163.291 202.731 162.629 202.585 161.992C202.507 161.664 202.411 161.34 202.297 161.023Z" fill="#192534"/>
<path opacity="0.1" d="M180.726 166.953C181.65 166.953 182.399 165.786 182.399 164.345C182.399 162.905 181.65 161.738 180.726 161.738C179.803 161.738 179.054 162.905 179.054 164.345C179.054 165.786 179.803 166.953 180.726 166.953Z" fill="white"/>
<path opacity="0.1" d="M185.384 159.368C185.384 159.368 185.156 155.93 188.848 157.352C192.541 158.774 190.162 160.316 190.162 160.316L185.384 159.368Z" fill="white"/>
<path opacity="0.1" d="M200.553 157.708V158.182L199.957 158.409L198.739 158.182C198.739 158.182 198.478 156.241 199.477 155.687C199.975 156.275 200.448 156.98 200.553 157.708Z" fill="white"/>
<path opacity="0.1" d="M200.553 157.73V158.656C200.553 158.656 185.014 159.722 183.354 159.722H183.341C182.482 159.268 181.622 159.066 180.9 159.368C180.68 159.458 180.474 159.577 180.285 159.722C180.231 159.765 180.178 159.81 180.128 159.855C179.9 160.062 179.703 160.301 179.543 160.563C178.473 162.28 178.702 164.937 178.702 164.937C175.596 165.885 172.372 163.398 172.372 163.398C171.787 161.656 171.241 160.52 170.74 159.769C170.283 159.089 169.867 158.755 169.497 158.592L168.418 157.594L168.471 157.027L177.139 163.282C177.139 163.282 177.975 157.948 179.881 158.304C181.787 158.66 185.615 158.66 185.615 158.66L200.553 157.73Z" fill="black"/>
<path d="M167.946 156.996C167.946 156.996 167.228 158.774 167.946 158.894C168.663 159.014 170.274 157.533 172.365 163.754C172.365 163.754 175.59 166.248 178.695 165.293C178.695 165.293 178.325 160.79 180.901 159.722C183.476 158.653 187.772 163.989 187.772 163.989V165.175L197.925 164.107C197.925 164.107 201.031 161.738 200.912 158.064L185.624 159.012C185.624 159.012 181.801 159.012 179.891 158.656C177.98 158.3 177.148 163.645 177.148 163.645L167.946 156.996Z" fill="#202429"/>
<path d="M124.95 124.578H124.948C121.419 124.578 118.558 127.417 118.558 130.919V130.921C118.558 134.423 121.419 137.262 124.948 137.262H124.95C128.479 137.262 131.339 134.423 131.339 130.921V130.919C131.339 127.417 128.479 124.578 124.95 124.578Z" fill="#192534"/>
<path d="M121.602 147.24C122.459 146.494 123.329 145.734 123.946 144.784C124.513 143.913 124.847 142.918 125.16 141.929C126.054 139.103 126.824 136.242 127.47 133.345C123.953 132.813 121.328 129.731 117.888 128.826C117.806 128.803 115.176 144.487 114.984 145.92C114.826 147.104 113.464 152.757 115.016 152.789C115.845 152.807 117.578 150.748 118.19 150.206L121.602 147.24Z" fill="#3F3D56"/>
<path opacity="0.1" d="M121.602 147.24C122.459 146.494 123.329 145.734 123.946 144.784C124.513 143.913 124.847 142.918 125.16 141.929C126.054 139.103 126.824 136.242 127.47 133.345C123.953 132.813 121.328 129.731 117.888 128.826C117.806 128.803 115.176 144.487 114.984 145.92C114.826 147.104 113.464 152.757 115.016 152.789C115.845 152.807 117.578 150.748 118.19 150.206L121.602 147.24Z" fill="black"/>
<path d="M78.1399 107.668C77.7514 107.727 77.3401 107.756 77.0202 107.981C76.5631 108.298 76.4466 108.888 76.2295 109.4C75.9444 110.058 75.4616 110.613 74.847 110.988C74.3237 111.305 73.6861 111.518 73.373 112.04C73.1961 112.391 73.112 112.782 73.1285 113.174C73.0873 114.336 73.14 115.499 73.2862 116.653C73.3593 117.231 73.4553 117.821 73.3342 118.39C73.1948 119.054 72.7743 119.619 72.3744 120.17C71.4146 121.487 70.4754 122.934 70.3977 124.558C70.3588 125.374 70.5417 126.211 70.3337 127.003C69.9658 128.406 68.4667 129.323 68.1742 130.742C68.0874 131.162 68.1102 131.606 67.9457 131.998C67.6577 132.679 66.8648 133.051 66.6614 133.751C66.5083 134.278 66.7322 134.833 66.7482 135.38C66.7711 136.18 66.3483 136.919 65.9416 137.609L63.5627 141.623C62.7903 142.924 61.9996 144.285 61.8694 145.791C61.7528 147.127 62.171 148.449 62.6303 149.71C63.6518 152.51 65.1692 155.476 67.9685 156.554C69.6162 157.189 71.4512 157.052 73.213 156.907C75.6262 156.71 78.0554 156.508 80.384 155.853C81.538 155.529 82.6692 155.095 83.8346 154.864C84.6116 154.712 85.4091 154.637 86.1587 154.39C86.9686 154.101 87.6853 153.601 88.2337 152.943C88.7821 152.285 89.142 151.492 89.2757 150.648C90.272 151.038 91.1952 149.741 91.0535 148.689C90.9119 147.637 90.1989 146.746 89.9109 145.725C89.4996 144.317 89.9109 142.788 90.5965 141.491C91.2821 140.194 92.2281 139.047 92.9754 137.783C93.8079 136.369 94.3863 134.822 94.6847 133.212C95.0846 131.037 94.9635 128.803 94.8401 126.597L94.3694 118.163C94.2825 116.619 94.1843 115.024 93.4987 113.627C92.7469 112.106 91.3758 110.99 90.0069 109.976C87.9869 108.451 85.8686 107.059 83.6655 105.808C82.2441 105.019 82.3447 105.325 81.2135 106.262C80.3373 107 79.2745 107.486 78.1399 107.668Z" fill="#3F3D56"/>
<path d="M97.3493 131.132C95.7337 132.398 94.0975 133.681 92.8543 135.309C91.3527 137.289 90.5007 139.679 90.4137 142.156C90.3993 143.315 90.4811 144.473 90.6583 145.618C90.9028 147.489 91.3438 149.573 92.932 150.608C93.9329 151.258 95.3086 151.422 95.9919 152.397C96.2067 152.703 96.3324 153.077 96.5838 153.347C97.0408 153.837 97.7538 153.943 98.4119 153.98C99.3953 154.034 100.382 154.004 101.36 153.889C102.477 153.755 103.613 153.512 104.719 153.721C106.872 154.122 108.478 156.139 110.661 156.408C112.473 156.635 114.171 155.59 115.688 154.594C117.253 153.567 118.887 152.467 119.735 150.805C120.56 149.19 120.514 147.29 120.45 145.478C120.379 143.466 120.306 141.43 119.765 139.489C119.596 138.981 119.467 138.461 119.379 137.933C119.216 136.572 119.836 135.234 120.293 133.933C121.003 131.953 121.314 129.513 119.902 127.948C119.305 127.286 118.476 126.878 117.635 126.588C113.922 125.263 109.822 125.767 106.012 126.361C102.377 126.907 100.201 128.903 97.3493 131.132Z" fill="#3F3D56"/>
<path d="M128.839 123.295C127.368 125.488 125.891 127.697 124.829 130.098C124.104 131.841 123.493 133.629 123.001 135.45C121.534 140.482 120.078 145.623 117.148 149.979C116.728 150.605 116.262 151.256 116.218 152.007C116.177 152.71 116.515 153.367 116.842 153.993C117.528 155.318 118.245 156.656 119.223 157.794C120.201 158.932 121.371 159.794 122.551 160.674C124.998 162.488 127.717 164.411 130.777 164.275C131.41 164.246 132.087 164.101 132.509 163.631C132.932 163.162 132.992 162.513 132.916 161.91C132.688 160.044 131.271 158.576 129.987 157.193C128.702 155.81 127.411 154.193 127.514 152.306C127.594 150.748 128.622 149.419 129.607 148.204C130.734 146.811 131.863 145.421 132.925 143.981C137.521 137.756 140.839 130.679 143.469 123.415C144.577 120.349 145.585 117.129 145.24 113.891C142.726 113.278 137.699 111.233 135.576 113.344C134.29 114.623 133.38 116.519 132.377 118.027L128.839 123.295Z" fill="#FBBEBE"/>
<path d="M150.064 102.003C148.472 104.759 147.225 107.699 146.353 110.756C146.14 111.496 145.951 112.276 146.113 113.024C146.289 113.827 146.84 114.487 147.256 115.194C147.672 115.902 147.964 116.798 147.587 117.528C145.805 117.666 144.038 117.183 142.315 116.705L136.913 115.208C136.465 115.123 136.045 114.929 135.69 114.646C135.064 114.058 135.112 113.072 135.233 112.228C136.291 105.321 139.689 98.9528 140.962 92.0838C141.147 91.0928 141.342 89.9952 142.137 89.3625C144.422 87.571 149.596 89.0882 150.779 91.6825C152.103 94.5625 151.561 99.4154 150.064 102.003Z" fill="#202429"/>
<path d="M121.145 78.3959C120.942 78.5002 120.713 78.6227 120.651 78.8358C120.638 78.9519 120.65 79.0695 120.687 79.1804C120.724 79.2913 120.785 79.3927 120.866 79.4776L123.172 82.6978C125.446 85.8726 127.724 89.0679 130.354 91.9638C132.34 94.1486 134.515 96.1564 136.853 97.9642C137.512 98.4722 138.213 99.0006 138.535 99.7648C137.098 95.5418 137.354 90.9321 139.248 86.8908C140.002 85.3034 140.999 83.8316 141.783 82.2533C141.857 82.1666 141.907 82.0624 141.928 81.9508C141.95 81.8393 141.942 81.7241 141.905 81.6164C141.869 81.5088 141.805 81.4123 141.72 81.3364C141.634 81.2604 141.531 81.2076 141.419 81.1829C139.422 80.1624 137.237 79.5456 135.249 78.507C133.688 77.6906 132.279 76.6293 130.878 75.5839C129.628 74.6518 127.964 73.0055 126.422 72.6131C124.756 72.1868 124.822 73.6948 124.285 74.9534C123.667 76.4245 122.559 77.6399 121.145 78.3959Z" fill="#FBBEBE"/>
<path opacity="0.1" d="M121.145 78.3959C120.942 78.5002 120.713 78.6227 120.651 78.8358C120.638 78.9519 120.65 79.0695 120.687 79.1804C120.724 79.2913 120.785 79.3927 120.866 79.4776L123.172 82.6978C125.446 85.8726 127.724 89.0679 130.354 91.9638C132.34 94.1486 134.515 96.1564 136.853 97.9642C137.512 98.4722 138.213 99.0006 138.535 99.7648C137.098 95.5418 137.354 90.9321 139.248 86.8908C140.002 85.3034 140.999 83.8316 141.783 82.2533C141.857 82.1666 141.907 82.0624 141.928 81.9508C141.95 81.8393 141.942 81.7241 141.905 81.6164C141.869 81.5088 141.805 81.4123 141.72 81.3364C141.634 81.2604 141.531 81.2076 141.419 81.1829C139.422 80.1624 137.237 79.5456 135.249 78.507C133.688 77.6906 132.279 76.6293 130.878 75.5839C129.628 74.6518 127.964 73.0055 126.422 72.6131C124.756 72.1868 124.822 73.6948 124.285 74.9534C123.667 76.4245 122.559 77.6399 121.145 78.3959Z" fill="black"/>
<path d="M135.283 91.2289C134.239 90.0588 132.829 89.2855 131.593 88.3149C129.815 86.918 128.41 85.1174 127.052 83.3145C124.561 79.9968 122.05 75.933 123.291 71.9758C121.972 71.8488 120.834 72.9237 120.213 74.0825C119.591 75.2414 119.271 76.5612 118.496 77.6247C117.32 79.2416 115.318 79.9945 113.453 80.7338C109.354 82.3615 105.394 84.3143 101.611 86.5733C100.091 87.4804 98.5787 88.4532 97.4178 89.7821C96.1747 91.1995 95.3954 92.957 94.3397 94.5104C92.283 97.565 89.1568 99.8577 85.6879 101.155C84.5453 101.586 83.3205 101.921 82.299 102.606C80.1098 104.073 79.198 106.999 79.7167 109.57C80.2355 112.142 82.0019 114.333 84.1248 115.888C86.2478 117.444 88.6655 118.362 91.1152 119.27C93.1689 120.018 95.2355 120.731 97.315 121.41C98.8451 121.936 100.409 122.357 101.997 122.671C104.92 123.204 107.925 123.073 110.88 123.397C113.581 123.692 116.234 124.37 118.947 124.558C121.659 124.746 124.532 124.388 126.741 122.821C128.499 121.576 129.669 119.696 130.75 117.832C133.556 113.025 136.062 108.053 138.254 102.942C138.901 101.429 144.902 92.8617 143.407 91.7551C135.882 86.1832 138.38 95.0365 137.662 94.3562C136.703 93.4445 136.152 92.2018 135.283 91.2289Z" fill="#202429"/>
<path d="M125.962 86.1039C124.347 82.8792 123.254 79.4277 122.169 75.9943C121.869 75.0418 121.568 74.0123 121.89 73.0689C122.278 71.935 123.522 70.9667 123.156 69.8306C120.249 70.7377 116.874 72.1595 116.3 75.1325C116.175 75.7811 116.198 76.4728 115.894 77.0579C115.302 78.2053 113.794 78.4503 112.512 78.6453C108.782 79.2372 105.076 80.7293 102.521 83.4892C102.091 83.9427 101.687 84.4575 101.15 84.7977C100.761 85.0248 100.348 85.2074 99.9178 85.3419C97.4178 86.2331 94.847 87.3443 93.2382 89.442C92.4087 90.5214 91.8785 91.8163 90.953 92.8187C89.7008 94.1793 87.8566 94.8596 86.5015 96.1273C85.5874 96.9709 84.9361 98.0413 84.3328 99.123C82.0111 103.287 80.3086 108.169 81.5403 112.77C82.1825 115.176 83.597 117.319 84.358 119.691C85.4069 122.923 85.304 126.608 87.2716 129.386C88.5124 131.132 90.432 132.286 92.3973 133.157C96.7702 135.088 101.574 135.855 106.337 135.384C108.103 135.18 109.857 134.887 111.593 134.504C115.736 133.656 119.922 132.733 123.686 130.815C130.105 127.542 134.724 121.694 139.134 116.024C139.973 114.945 140.818 113.857 141.419 112.623C142.007 111.446 142.361 110.171 142.756 108.92C144.093 104.699 145.974 100.497 145.798 96.0797C145.805 95.5506 145.7 95.026 145.489 94.5399C145.311 94.177 145.032 93.8596 144.874 93.4945C144.596 92.8413 144.721 92.0862 144.525 91.4036C143.979 89.4987 141.456 89.1359 139.459 89.1517L138.819 100.329C138.72 102.008 138.54 103.869 137.281 104.994C136.742 105.454 136.07 105.732 135.361 105.787C134.653 105.842 133.945 105.671 133.341 105.3C131.997 104.436 131.808 102.928 131.817 101.484C131.831 99.6695 131.682 98.0073 131.099 96.2679C129.893 92.6599 127.658 89.4942 125.962 86.1039Z" fill="#192534"/>
<path d="M126.757 117.957C134.714 121.959 142.717 125.991 149.838 131.32C151.483 132.549 153.082 133.851 154.822 134.949C159.806 138.092 165.989 139.623 169.835 144.067C170.644 144.999 171.33 146.047 172.262 146.854C173.071 147.514 173.976 148.049 174.945 148.442C178.035 149.795 181.38 150.476 184.758 150.44C185.642 150.428 186.551 150.363 187.347 149.986C189.488 148.957 189.975 146.199 190.192 143.847C190.265 143.051 190.281 142.113 189.65 141.618C189.31 141.353 188.859 141.285 188.432 141.219C181.483 140.131 175.071 136.811 169.264 132.867C163.457 128.923 158.135 124.32 152.408 120.263C150.395 118.836 148.334 117.478 146.273 116.12L139.602 111.725C136.074 109.4 132.358 107.006 128.144 106.568C127.905 106.527 127.659 106.543 127.427 106.616C127.056 106.758 126.851 107.139 126.67 107.489C125.434 109.879 123.928 112.049 122.413 114.262C121.602 115.446 121.51 115.752 122.909 116.385C124.168 116.956 125.503 117.326 126.757 117.957Z" fill="#FBBEBE"/>
<path d="M142.393 184C142.483 184 142.571 183.964 142.635 183.9C142.699 183.837 142.735 183.75 142.735 183.66C142.735 183.57 142.699 183.483 142.635 183.419C142.571 183.356 142.483 183.32 142.393 183.32C142.302 183.32 142.214 183.356 142.15 183.419C142.086 183.483 142.05 183.57 142.05 183.66C142.05 183.75 142.086 183.837 142.15 183.9C142.214 183.964 142.302 184 142.393 184Z" fill="black"/>
<path d="M144.893 93.7031C156.964 93.7031 166.75 83.9917 166.75 72.0121C166.75 60.0325 156.964 50.3212 144.893 50.3212C132.821 50.3212 123.035 60.0325 123.035 72.0121C123.035 83.9917 132.821 93.7031 144.893 93.7031Z" fill="#FBBEBE"/>
<path d="M127.713 80.4708C128.101 78.5228 130.354 77.5386 132.349 77.4071C134.368 77.2994 136.38 77.7214 138.182 78.6307C139.984 79.54 141.513 80.9044 142.614 82.5866C143.076 81.3707 143.388 80.1036 143.542 78.8131L147.198 79.0829C147.607 79.1456 148.024 79.1082 148.414 78.9741C148.885 78.7655 149.175 78.2938 149.42 77.8402C151.019 74.8763 152.089 71.2388 155.091 69.6764V73.7583C155.914 73.5995 156.688 73.2554 157.355 72.7525C158.022 72.2496 158.563 71.6014 158.937 70.8578C159.144 71.9878 159.471 73.0925 159.915 74.1529C159.989 74.3298 160.091 74.5248 160.277 74.5701C160.367 74.5767 160.458 74.5641 160.543 74.5332C160.628 74.5023 160.705 74.4538 160.77 74.391C162.17 73.3365 163.437 72.1183 164.543 70.7626L168.885 78.2325C171.393 71.9463 171.53 64.9726 169.271 58.5941C167.011 52.2156 162.507 46.8612 156.586 43.5157C155.582 42.9418 154.535 42.4466 153.453 42.0349C150.626 40.9781 147.58 40.6402 144.566 40.4361C140.281 40.1458 135.759 40.1572 131.997 42.1959C129.975 43.2912 128.295 44.9058 126.673 46.5295C124.479 48.7202 122.285 51.0355 121.117 53.8997C120.311 55.8771 120.034 58.0202 119.79 60.1382C119.641 61.4195 119.504 62.7439 119.872 63.9798C120.128 64.8347 120.61 65.6035 120.935 66.4357C121.474 67.8191 121.559 69.3294 121.766 70.7989C122.228 74.0464 123.297 77.1797 124.918 80.0377C125.261 80.6432 125.699 81.2872 126.383 81.4414C127.066 81.5956 127.886 80.8472 127.525 80.2576" fill="#192534"/>
<path d="M127.713 80.4708C128.101 78.5228 130.354 77.5386 132.349 77.4071C134.368 77.2994 136.38 77.7214 138.182 78.6307C139.984 79.54 141.513 80.9044 142.614 82.5866C143.076 81.3707 143.388 80.1036 143.542 78.8131L147.198 79.0829C147.607 79.1456 148.024 79.1082 148.414 78.9741C148.885 78.7655 149.175 78.2938 149.42 77.8402C151.019 74.8763 152.089 71.2388 155.091 69.6764V73.7583C155.914 73.5995 156.688 73.2554 157.355 72.7525C158.022 72.2496 158.563 71.6014 158.937 70.8578C159.144 71.9878 159.471 73.0925 159.915 74.1529C159.989 74.3298 160.091 74.5248 160.277 74.5701C160.367 74.5767 160.458 74.5641 160.543 74.5332C160.628 74.5023 160.705 74.4538 160.77 74.391C162.17 73.3365 163.437 72.1183 164.543 70.7626L168.885 78.2325C171.393 71.9463 171.53 64.9726 169.271 58.5941C167.011 52.2156 162.507 46.8612 156.586 43.5157C155.582 42.9418 154.535 42.4466 153.453 42.0349C150.626 40.9781 147.58 40.6402 144.566 40.4361C140.281 40.1458 135.759 40.1572 131.997 42.1959C129.975 43.2912 128.295 44.9058 126.673 46.5295C124.479 48.7202 122.285 51.0355 121.117 53.8997C120.311 55.8771 120.034 58.0202 119.79 60.1382C119.641 61.4195 119.504 62.7439 119.872 63.9798C120.128 64.8347 120.61 65.6035 120.935 66.4357C121.474 67.8191 121.559 69.3294 121.766 70.7989C122.228 74.0464 123.297 77.1797 124.918 80.0377C125.261 80.6432 125.699 81.2872 126.383 81.4414C127.066 81.5956 127.886 80.8472 127.525 80.2576" stroke="black" stroke-miterlimit="10"/>
<path d="M102.625 101.289C103.508 103.695 105.724 105.328 107.827 106.815L113.311 110.698C114.769 111.729 116.266 112.8 117.214 114.305C115.827 114.827 115.194 116.596 115.649 117.997C116.104 119.399 117.408 120.403 118.83 120.857C120.251 121.311 121.759 121.295 123.242 121.211C124.945 121.118 126.727 120.914 128.133 119.954L125.046 118.068C124.232 117.567 123.297 116.768 123.594 115.868L126.851 115.836C127.194 115.836 127.566 115.82 127.838 115.609C128.11 115.399 128.204 115.074 128.318 114.766C128.802 113.519 129.629 112.431 130.704 111.626C131.779 110.822 133.06 110.332 134.401 110.212C135.205 110.153 136.131 110.187 136.686 109.593C137.047 109.199 137.125 108.632 137.189 108.103C137.31 107.096 137.429 106.062 137.228 105.076C137.027 104.089 136.446 103.11 135.514 102.695C134.828 102.386 134.035 102.416 133.286 102.316C129.838 101.862 127.447 98.7601 125.596 95.837C123.745 92.9139 121.759 89.6801 118.46 88.5916C117.429 88.2855 116.361 88.1229 115.285 88.1086C112.907 88.011 110.457 88.2038 108.29 89.1835C104.253 91.009 101.053 97.0072 102.625 101.289Z" fill="#202429"/>
<path opacity="0.1" d="M168.905 74.1959L164.563 66.726C163.458 68.0822 162.191 69.3005 160.791 70.3544C160.726 70.418 160.649 70.4671 160.564 70.4984C160.479 70.5297 160.388 70.5425 160.297 70.5358C160.112 70.4904 160.009 70.2954 159.936 70.1185C159.492 69.0574 159.164 67.9519 158.958 66.8212C158.584 67.5653 158.043 68.2141 157.376 68.7174C156.709 69.2207 155.934 69.5651 155.112 69.7239V65.642C152.109 67.209 151.049 70.8465 149.44 73.8059C149.196 74.2594 148.905 74.7243 148.435 74.9397C148.044 75.0739 147.627 75.1112 147.219 75.0486L143.563 74.7787C143.408 76.0692 143.097 77.3364 142.635 78.5523C141.533 76.8701 140.004 75.5057 138.202 74.5964C136.4 73.6871 134.388 73.2651 132.37 73.3727C130.375 73.5043 128.122 74.4885 127.733 76.4365L127.539 76.2233C127.907 76.8152 127.082 77.5635 126.396 77.4093C125.711 77.2551 125.274 76.6111 124.931 76.0056C123.315 73.1445 122.25 70.0089 121.794 66.76C121.586 65.2905 121.501 63.7802 120.962 62.3969C120.638 61.5646 120.155 60.7959 119.899 59.9409C119.899 59.9114 119.883 59.8842 119.877 59.8547C119.856 60.0248 119.835 60.1949 119.817 60.365C119.669 61.6485 119.531 62.9706 119.899 64.2201C120.155 65.0751 120.638 65.8438 120.962 66.6738C121.501 68.0594 121.586 69.5675 121.794 71.0392C122.25 74.2875 123.314 77.4225 124.931 80.2825C125.274 80.888 125.713 81.5343 126.396 81.6886C127.079 81.8428 127.9 81.0944 127.539 80.5025L127.733 80.7134C128.122 78.7677 130.375 77.7812 132.37 77.652C134.388 77.5434 136.4 77.9647 138.202 78.8737C140.004 79.7826 141.533 81.147 142.635 82.8292C143.097 81.6142 143.409 80.3478 143.563 79.058L147.219 79.3256C147.627 79.389 148.045 79.3516 148.435 79.2167C148.905 79.0081 149.196 78.5364 149.44 78.0828C151.04 75.1166 152.109 71.4814 155.112 69.919V74.0009C155.934 73.8421 156.709 73.4977 157.376 72.9944C158.043 72.491 158.584 71.8423 158.958 71.0982C159.164 72.2288 159.492 73.3342 159.936 74.3955C160.009 74.5701 160.112 74.7674 160.297 74.8105C160.387 74.8181 160.479 74.806 160.564 74.775C160.649 74.7441 160.726 74.695 160.791 74.6313C162.191 73.5775 163.458 72.3592 164.563 71.003L168.905 78.4729C170.471 74.509 171.116 70.2456 170.791 66.0003C170.581 68.8107 169.945 71.5735 168.905 74.1959Z" fill="black"/>
</g>
<defs>
<clipPath id="clip0_50_1873">
<rect width="250" height="184" fill="white"/>
</clipPath>
</defs>
</svg>
