<svg width="250" height="243" viewBox="0 0 250 243" fill="none" xmlns="http://www.w3.org/2000/svg">
<g clip-path="url(#clip0_50_3038)">
<path d="M158.71 54.6499H91.3461C89.811 54.6517 88.3393 55.2598 87.2538 56.3407C86.1683 57.4216 85.5577 58.8871 85.5558 60.4157V209.501L84.7838 209.735L68.2583 214.774C67.4751 215.012 66.6292 214.931 65.9062 214.548C65.1832 214.165 64.6422 213.513 64.4021 212.733L15.2463 52.8471C15.007 52.0672 15.0886 51.2246 15.4729 50.5046C15.8573 49.7845 16.513 49.2459 17.296 49.0071L42.7618 41.2424L116.588 18.7403L142.054 10.9757C142.441 10.8569 142.848 10.8154 143.252 10.8536C143.656 10.8917 144.048 11.0087 144.406 11.198C144.764 11.3872 145.081 11.6449 145.34 11.9563C145.598 12.2678 145.791 12.6268 145.91 13.013L158.475 53.8811L158.71 54.6499Z" fill="#F2F2F2"/>
<path d="M173.41 53.8809L158.266 4.62546C158.014 3.80477 157.603 3.04156 157.054 2.37945C156.506 1.71733 155.832 1.16928 155.071 0.766618C154.31 0.363955 153.477 0.114566 152.619 0.0327113C151.761 -0.0491436 150.895 0.0381396 150.071 0.289564L114.268 11.2023L40.4457 33.7083L4.64246 44.6249C2.97923 45.1334 1.58658 46.2784 0.770206 47.8083C-0.0461704 49.3383 -0.21958 51.1283 0.288048 52.7854L52.0455 221.12C52.4579 222.458 53.29 223.629 54.4196 224.461C55.5493 225.293 56.9171 225.743 58.3223 225.745C58.9727 225.745 59.6194 225.648 60.2407 225.456L84.7838 217.976L85.5559 217.738V216.934L84.7838 217.169L60.013 224.722C58.5449 225.168 56.9592 225.015 55.6038 224.298C54.2484 223.581 53.2339 222.358 52.7829 220.898L1.02936 52.5587C0.805892 51.8348 0.728007 51.0742 0.800164 50.3203C0.872321 49.5665 1.0931 48.8342 1.44986 48.1655C1.80663 47.4967 2.29238 46.9046 2.87928 46.423C3.46618 45.9414 4.14271 45.5799 4.87014 45.3591L40.6734 34.4424L114.496 11.9404L150.299 1.02375C150.851 0.856082 151.424 0.77059 152.001 0.770055C153.239 0.772823 154.444 1.17026 155.439 1.90416C156.433 2.63806 157.166 3.66985 157.529 4.84841L172.603 53.8809L172.843 54.6497H173.646L173.41 53.8809Z" fill="#3F3D56"/>
<path d="M47.3572 49.1325C46.6132 49.132 45.8889 48.8941 45.2907 48.4536C44.6924 48.0132 44.2517 47.3934 44.0331 46.6853L39.061 30.5134C38.9274 30.079 38.881 29.6226 38.9245 29.1704C38.9681 28.7181 39.1006 28.2788 39.3147 27.8776C39.5287 27.4764 39.8201 27.1211 40.172 26.832C40.524 26.5429 40.9297 26.3257 41.366 26.1928L109.282 5.48818C110.163 5.22047 111.115 5.31177 111.928 5.74205C112.742 6.17234 113.35 6.90644 113.621 7.78325L118.593 23.9553C118.862 24.8326 118.77 25.7803 118.338 26.5903C117.906 27.4003 117.169 28.0066 116.288 28.2761L48.3722 48.9807C48.0433 49.0812 47.7012 49.1324 47.3572 49.1325Z" fill="#202429"/>
<path d="M73.4029 17.2798C77.6668 17.2798 81.1233 13.8379 81.1233 9.59206C81.1233 5.34622 77.6668 1.9043 73.4029 1.9043C69.1391 1.9043 65.6825 5.34622 65.6825 9.59206C65.6825 13.8379 69.1391 17.2798 73.4029 17.2798Z" fill="#202429"/>
<path d="M73.4029 14.4604C76.1029 14.4604 78.2917 12.2808 78.2917 9.59225C78.2917 6.90366 76.1029 4.72412 73.4029 4.72412C70.7029 4.72412 68.5141 6.90366 68.5141 9.59225C68.5141 12.2808 70.7029 14.4604 73.4029 14.4604Z" fill="white"/>
<path d="M232.629 223.781H102.155C101.285 223.78 100.451 223.435 99.8357 222.822C99.2206 222.21 98.8746 221.38 98.8736 220.513V64.8361C98.8746 63.9699 99.2206 63.1394 99.8357 62.5269C100.451 61.9144 101.285 61.5698 102.155 61.5688H232.629C233.499 61.5698 234.333 61.9144 234.948 62.5269C235.563 63.1394 235.909 63.9699 235.91 64.8361V220.513C235.909 221.379 235.563 222.21 234.948 222.822C234.333 223.435 233.499 223.78 232.629 223.781Z" fill="#E6E6E6"/>
<path d="M172.603 53.8813H91.3461C89.6065 53.8838 87.9387 54.5731 86.7086 55.798C85.4784 57.0229 84.7863 58.6836 84.7838 60.4159V217.169L85.5558 216.935V60.4159C85.5577 58.8873 86.1684 57.4218 87.2538 56.3409C88.3393 55.26 89.811 54.652 91.3461 54.6501H172.843L172.603 53.8813ZM243.438 53.8813H91.3461C89.6065 53.8838 87.9387 54.5731 86.7086 55.798C85.4784 57.0229 84.7863 58.6836 84.7838 60.4159V236.466C84.7863 238.198 85.4784 239.859 86.7086 241.084C87.9387 242.309 89.6065 242.998 91.3461 243H243.438C245.177 242.998 246.845 242.309 248.075 241.084C249.305 239.859 249.998 238.198 250 236.466V60.4159C249.998 58.6836 249.305 57.0229 248.075 55.798C246.845 54.5731 245.177 53.8838 243.438 53.8813ZM249.228 236.466C249.226 237.994 248.615 239.46 247.53 240.541C246.444 241.622 244.973 242.23 243.438 242.231H91.3461C89.811 242.23 88.3393 241.622 87.2538 240.541C86.1684 239.46 85.5577 237.994 85.5558 236.466V60.4159C85.5577 58.8873 86.1684 57.4218 87.2538 56.3409C88.3393 55.26 89.811 54.652 91.3461 54.6501H243.438C244.973 54.652 246.444 55.26 247.53 56.3409C248.615 57.4218 249.226 58.8873 249.228 60.4159V236.466Z" fill="#3F3D56"/>
<path d="M202.906 70.794H131.878C130.957 70.7929 130.074 70.4281 129.423 69.7796C128.771 69.131 128.405 68.2517 128.404 67.3345V50.4214C128.405 49.5042 128.771 48.6249 129.423 47.9763C130.074 47.3278 130.957 46.9629 131.878 46.9619H202.906C203.827 46.9629 204.71 47.3278 205.361 47.9763C206.013 48.6249 206.379 49.5042 206.38 50.4214V67.3345C206.379 68.2517 206.013 69.131 205.361 69.7796C204.71 70.4281 203.827 70.7929 202.906 70.794Z" fill="#202429"/>
<path d="M167.392 48.1153C171.656 48.1153 175.112 44.6733 175.112 40.4275C175.112 36.1817 171.656 32.7397 167.392 32.7397C163.128 32.7397 159.672 36.1817 159.672 40.4275C159.672 44.6733 163.128 48.1153 167.392 48.1153Z" fill="#202429"/>
<path d="M167.392 45.1102C169.989 45.1102 172.094 43.0138 172.094 40.4277C172.094 37.8416 169.989 35.7451 167.392 35.7451C164.795 35.7451 162.689 37.8416 162.689 40.4277C162.689 43.0138 164.795 45.1102 167.392 45.1102Z" fill="white"/>
</g>
<defs>
<clipPath id="clip0_50_3038">
<rect width="250" height="243" fill="white"/>
</clipPath>
</defs>
</svg>
